<svg width="39" height="56" viewBox="0 0 39 56" fill="none" xmlns="http://www.w3.org/2000/svg">
<path d="M19.4571 4.60495C9.92314 4.60495 2.1619 14.0878 2.1619 25.745C2.1619 37.4022 9.92314 46.885 19.4571 46.885C21.2409 46.8821 23.0158 46.5366 24.7322 45.8582L30.7099 51.1734C30.873 51.3196 31.0614 51.4019 31.2552 51.4115C31.4489 51.4211 31.641 51.3578 31.8112 51.2281C31.9814 51.0984 32.1235 50.9071 32.2226 50.6743C32.3217 50.4415 32.3742 50.1758 32.3745 49.905V39.7427C33.7271 37.9302 34.8064 35.758 35.5489 33.3541C36.2915 30.9502 36.6823 28.363 36.6983 25.745C36.7524 14.0878 28.9911 4.60495 19.4571 4.60495ZM30.5801 37.9911C30.4715 38.1318 30.3847 38.3024 30.3252 38.492C30.2657 38.6816 30.2347 38.8863 30.2342 39.0934V47.1568L25.4997 42.9439C25.3676 42.8272 25.219 42.752 25.0641 42.7233C24.9092 42.6946 24.7517 42.7132 24.6025 42.7778C22.9364 43.5006 21.2017 43.8671 19.4571 43.865C11.1122 43.865 4.3238 35.7412 4.3238 25.745C4.3238 15.7488 11.1122 7.62495 19.4571 7.62495C27.8021 7.62495 34.5905 15.7488 34.5905 25.745C34.5658 28.0629 34.1966 30.3484 33.5063 32.4565C32.8159 34.5646 31.8195 36.4493 30.5801 37.9911Z" fill="#EB5757"/>
<path d="M19.4571 31.9813C19.7438 31.9813 20.0188 31.8222 20.2215 31.539C20.4242 31.2558 20.5381 30.8717 20.5381 30.4713V13.6348C20.5381 13.2343 20.4242 12.8502 20.2215 12.567C20.0188 12.2838 19.7438 12.1248 19.4571 12.1248C19.1705 12.1248 18.8955 12.2838 18.6928 12.567C18.4901 12.8502 18.3762 13.2343 18.3762 13.6348V30.4411C18.3733 30.6419 18.3992 30.8415 18.4522 31.0282C18.5052 31.2149 18.5844 31.3849 18.685 31.5284C18.7857 31.6718 18.9059 31.7857 19.0384 31.8635C19.171 31.9413 19.3134 31.9813 19.4571 31.9813Z" fill="#EB5757"/>
<path d="M19.4571 39.1387C20.2511 39.1387 20.8948 38.2395 20.8948 37.1304C20.8948 36.0212 20.2511 35.1221 19.4571 35.1221C18.6631 35.1221 18.0195 36.0212 18.0195 37.1304C18.0195 38.2395 18.6631 39.1387 19.4571 39.1387Z" fill="#EB5757"/>
</svg>
