<svg width="40" height="36" viewBox="0 0 40 36" fill="none" xmlns="http://www.w3.org/2000/svg">
<path d="M19.5353 2.5C9.963 2.5 2.17059 8.78 2.17059 16.5C2.17059 24.22 9.963 30.5 19.5353 30.5C21.3262 30.4981 23.1083 30.2693 24.8315 29.82L30.8332 33.34C30.9971 33.4369 31.1862 33.4913 31.3807 33.4977C31.5752 33.5041 31.7681 33.4621 31.939 33.3762C32.1099 33.2903 32.2525 33.1637 32.352 33.0095C32.4516 32.8554 32.5042 32.6794 32.5046 32.5V25.77C33.8625 24.5697 34.9462 23.1312 35.6917 21.5392C36.4373 19.9472 36.8296 18.2338 36.8457 16.5C36.9 8.78 29.1076 2.5 19.5353 2.5ZM30.703 24.61C30.5939 24.7032 30.5067 24.8162 30.447 24.9417C30.3872 25.0673 30.3562 25.2029 30.3557 25.34V30.68L25.6021 27.89C25.4695 27.8128 25.3203 27.7629 25.1648 27.744C25.0093 27.725 24.8512 27.7373 24.7013 27.78C23.0286 28.2587 21.2869 28.5014 19.5353 28.5C11.1568 28.5 4.34118 23.12 4.34118 16.5C4.34118 9.88 11.1568 4.5 19.5353 4.5C27.9138 4.5 34.7294 9.88 34.7294 16.5C34.7047 18.0351 34.334 19.5487 33.6409 20.9448C32.9477 22.3408 31.9473 23.589 30.703 24.61Z" fill="#EB5757"/>
<path d="M19.5353 20.63C19.8231 20.63 20.0992 20.5246 20.3027 20.3371C20.5062 20.1496 20.6206 19.8952 20.6206 19.63V8.48C20.6206 8.21479 20.5062 7.96043 20.3027 7.7729C20.0992 7.58536 19.8231 7.48 19.5353 7.48C19.2474 7.48 18.9714 7.58536 18.7679 7.7729C18.5643 7.96043 18.45 8.21479 18.45 8.48V19.61C18.4471 19.743 18.473 19.8752 18.5263 19.9988C18.5795 20.1225 18.659 20.2351 18.7601 20.3301C18.8611 20.4251 18.9818 20.5005 19.1149 20.552C19.248 20.6035 19.3909 20.63 19.5353 20.63Z" fill="#EB5757"/>
<path d="M19.5353 25.37C20.3325 25.37 20.9787 24.7745 20.9787 24.04C20.9787 23.3055 20.3325 22.71 19.5353 22.71C18.7381 22.71 18.0919 23.3055 18.0919 24.04C18.0919 24.7745 18.7381 25.37 19.5353 25.37Z" fill="#EB5757"/>
</svg>
